<svg id="icon_filled_settings" data-name="icon / filled / settings" xmlns="http://www.w3.org/2000/svg" width="24" height="24" viewBox="0 0 24 24">
  <rect id="padding" width="24" height="24" fill="none"/>
  <path id="Combined_Shape" data-name="Combined Shape" d="M11.678,19.822H8.154l-.472-2.828a7.508,7.508,0,0,1-1.2-.491L4.148,18.166,1.656,15.674l1.666-2.333a7.462,7.462,0,0,1-.494-1.2L0,11.67V8.144L2.828,7.68a7.477,7.477,0,0,1,.494-1.2L1.656,4.148,4.148,1.654,6.474,3.32a7.491,7.491,0,0,1,1.2-.494L8.146,0h3.518l.472,2.826a7.52,7.52,0,0,1,1.2.494l2.332-1.666L18.16,4.14,16.494,6.472a7.362,7.362,0,0,1,.494,1.2l2.828.472V11.67l-2.822.468a7.274,7.274,0,0,1-.494,1.2l1.666,2.332-2.491,2.492L13.342,16.5a7.509,7.509,0,0,1-1.2.492l-.464,2.83h0ZM6.192,9.906A3.716,3.716,0,1,0,9.908,6.19,3.72,3.72,0,0,0,6.192,9.906Zm1.24,0a2.476,2.476,0,1,1,2.476,2.476A2.475,2.475,0,0,1,7.432,9.908Z" transform="translate(2 2)"/>
</svg>
